<?xml version="1.0" standalone="no"?>
<svg version="1.0" xmlns="http://www.w3.org/2000/svg"
 width="205" height="137" viewBox="50 201 205 137"
 preserveAspectRatio="xMidYMid meet">
<g transform="translate(0,533) scale(0.1,-0.1)" fill="currentColor" stroke="none">
<path d="M1498 3243 c-19 -21 -51 -58 -70 -83 -18 -25 -82 -92 -140 -149
l-107 -103 -49 36 c-28 20 -54 36 -60 36 -6 0 -56 -45 -112 -100 -78 -77 -119
-109 -178 -139 -60 -30 -96 -59 -163 -128 -81 -84 -156 -180 -147 -189 3 -2
36 31 75 74 47 51 91 89 129 109 33 18 75 48 94 68 19 20 69 52 110 71 117 54
169 91 179 128 13 49 3 49 -44 -1 -25 -26 -48 -43 -52 -39 -4 4 18 32 49 62
l55 56 74 -54 c41 -29 97 -68 125 -87 28 -19 63 -54 79 -78 15 -25 57 -68 93
-96 l64 -52 -6 -70 c-3 -38 -9 -83 -12 -99 -10 -41 16 -30 40 18 26 53 10 127
-44 203 -22 31 -40 62 -40 69 0 8 9 28 20 46 20 33 27 68 13 68 -4 0 -27 -19
-50 -42 -32 -32 -46 -39 -54 -31 -9 9 1 26 40 69 28 32 51 64 51 72 0 22 -62
6 -121 -29 -36 -23 -53 -28 -66 -21 -14 8 3 23 100 87 147 96 157 109 157 191
0 35 -4 64 -9 64 -6 0 -24 -27 -42 -61 -23 -42 -49 -73 -88 -102 -30 -23 -78
-63 -106 -89 -29 -27 -60 -48 -71 -48 -13 0 21 39 106 123 69 67 147 146 172
175 l46 54 78 -64 c43 -35 117 -100 164 -144 47 -45 99 -88 115 -97 17 -8 50
-38 73 -66 34 -40 51 -52 82 -57 32 -5 50 -19 106 -81 47 -53 82 -81 118 -97
38 -17 78 -51 154 -131 56 -59 105 -105 108 -103 7 7 -63 96 -130 166 -34 35
-92 84 -131 110 -38 25 -96 72 -127 104 -40 41 -69 63 -100 71 -34 10 -52 25
-86 70 -26 34 -51 57 -63 57 -19 0 -189 149 -287 253 -30 31 -60 57 -66 57 -7
0 -28 -17 -48 -37z"/>
<path d="M1680 3074 c0 -11 59 -101 75 -114 24 -20 6 -31 -25 -15 -16 8 -31
15 -35 15 -10 0 -5 -52 11 -113 17 -65 21 -113 11 -124 -4 -3 -31 15 -61 41
-30 25 -63 46 -73 46 -30 0 -93 -48 -93 -72 0 -11 19 -76 42 -143 40 -119 41
-122 24 -155 -19 -40 -14 -50 14 -25 28 25 26 92 -5 180 -37 104 -31 135 26
135 20 0 37 -12 66 -46 l38 -46 26 21 c33 26 64 125 55 175 -6 32 -4 37 24 51
17 9 30 24 30 34 0 23 -110 155 -133 159 -9 2 -17 0 -17 -4z"/>
<path d="M1606 2968 c-16 -41 -15 -43 9 -80 31 -46 52 -51 29 -6 -11 22 -14
44 -10 74 7 57 -7 64 -28 12z"/>
<path d="M1847 2857 c-3 -8 3 -38 14 -68 10 -30 18 -78 19 -106 0 -38 7 -66
27 -101 l27 -48 -27 -53 -26 -53 -24 49 c-14 27 -30 67 -36 91 -7 23 -15 42
-20 42 -4 0 -17 -14 -30 -31 -23 -31 -77 -69 -98 -69 -9 0 -13 18 -13 54 0 63
-11 97 -40 126 -16 16 -24 18 -40 10 -26 -14 -27 -50 -1 -50 29 0 35 -15 47
-125 10 -99 10 -99 -15 -127 -14 -15 -76 -52 -137 -82 l-111 -54 -21 -59 c-23
-64 -32 -138 -17 -138 5 0 13 18 16 40 15 87 37 123 92 149 29 14 80 41 115
61 51 29 63 32 60 18 -2 -10 -40 -37 -91 -64 -49 -25 -98 -56 -110 -67 -22
-23 -39 -113 -27 -146 6 -16 10 -14 30 20 76 125 92 145 151 175 64 32 74 46
108 151 25 77 36 88 89 95 37 5 40 3 75 -43 44 -60 127 -142 127 -126 0 6 -10
32 -22 56 l-21 45 25 39 c23 35 26 46 21 100 l-6 60 47 50 c25 27 46 54 46 60
0 6 -15 19 -32 28 -18 9 -58 33 -88 53 -78 52 -77 52 -83 38z m116 -110 l27
-22 -26 -32 c-14 -18 -29 -33 -34 -33 -4 0 -10 25 -12 55 -3 61 3 66 45 32z
m-503 -544 c-1 -13 -49 -68 -54 -62 -7 6 34 69 45 69 5 0 9 -3 9 -7z"/>
<path d="M2031 2653 c-42 -51 -40 -71 2 -39 19 15 37 26 42 26 4 0 56 -42 116
-92 89 -77 113 -104 141 -158 28 -55 39 -67 73 -80 23 -8 58 -25 78 -37 67
-40 64 -27 -12 63 -32 38 -66 84 -75 102 -9 17 -31 39 -49 48 -39 20 -88 58
-184 141 -40 35 -79 63 -87 63 -8 0 -28 -17 -45 -37z m337 -234 c9 -18 25 -39
35 -48 23 -21 22 -30 -3 -24 -12 3 -32 27 -46 54 -26 53 -14 69 14 18z"/>
<path d="M891 2638 c-34 -23 -76 -59 -93 -81 -18 -22 -61 -58 -97 -82 -37 -23
-82 -57 -100 -76 -47 -47 -92 -110 -85 -120 9 -15 125 50 186 105 32 28 81 86
109 129 28 42 53 77 57 77 12 1 107 90 96 90 -6 0 -39 -19 -73 -42z m-162
-195 c-1 -13 -120 -96 -126 -89 -8 8 10 26 67 65 46 31 60 37 59 24z"/>
<path d="M923 2600 c-34 -28 -59 -60 -78 -101 -22 -45 -46 -74 -103 -122 -41
-34 -92 -73 -114 -86 -45 -26 -45 -34 -1 -25 18 4 65 36 114 80 46 40 87 74
91 74 39 1 -137 -148 -202 -171 -36 -13 -41 -18 -27 -24 39 -16 91 13 179 100
84 83 105 117 122 197 6 27 80 88 92 75 6 -6 -23 -143 -35 -167 -5 -8 -16 -17
-25 -18 -16 -3 -16 -1 -5 20 18 33 39 128 28 128 -13 0 -39 -55 -39 -82 0 -31
-20 -60 -94 -135 -68 -70 -65 -80 8 -28 75 53 106 60 161 36 45 -20 59 -15 29
10 -10 8 -29 19 -43 26 l-26 11 32 1 c47 1 88 -39 114 -111 35 -93 55 -90 109
17 31 62 32 66 20 110 -12 43 -11 47 10 70 13 14 35 25 49 25 26 0 26 0 -5
-19 -18 -11 -35 -25 -39 -31 -12 -19 4 -24 22 -8 28 24 83 49 93 43 18 -11 10
-22 -20 -29 -39 -7 -80 -48 -80 -78 0 -33 -62 -158 -95 -190 -36 -36 -56 -26
-88 45 -28 61 -80 101 -133 101 -19 0 -55 -14 -91 -36 -32 -19 -69 -39 -82
-43 -12 -4 -38 -17 -56 -29 -18 -11 -41 -26 -51 -33 -18 -11 -17 -12 6 -12 14
-1 61 20 105 46 131 76 153 86 179 79 41 -10 83 -54 100 -103 9 -25 23 -55 33
-65 21 -23 65 -23 86 0 15 16 101 179 122 231 12 29 35 40 35 17 0 -9 -32 -72
-71 -142 -67 -118 -83 -157 -47 -117 26 29 208 351 208 367 0 16 -84 46 -127
46 -18 0 -114 -40 -131 -55 -1 -1 7 -23 18 -49 24 -57 25 -97 4 -137 -13 -25
-18 -28 -30 -18 -9 7 -22 26 -30 42 -9 16 -40 55 -70 88 -30 32 -54 67 -54 77
0 29 25 56 74 80 25 13 46 27 46 32 0 9 -86 30 -124 30 -13 0 -46 -18 -73 -40z"/>
<path d="M2076 2544 c-3 -9 -6 -44 -6 -78 l0 -63 53 -49 c54 -51 171 -144 181
-144 3 0 6 14 6 31 0 25 -14 44 -74 103 -53 52 -78 84 -86 114 -15 47 -30 47
-30 0 0 -26 15 -46 85 -117 46 -46 83 -87 80 -89 -7 -8 -156 130 -176 163 -15
23 -17 41 -13 81 6 50 -7 82 -20 48z"/>
<path d="M580 2445 c-30 -30 -49 -55 -43 -55 14 0 113 89 113 101 0 19 -17 7
-70 -46z"/>
<path d="M2180 2470 c0 -33 24 -72 77 -121 26 -25 60 -60 75 -76 15 -17 47
-37 70 -45 24 -8 51 -19 62 -23 37 -16 10 20 -40 52 -87 57 -100 70 -115 119
-22 72 -129 149 -129 94z m90 -72 c11 -18 20 -37 20 -42 0 -12 -49 33 -61 57
-18 33 20 19 41 -15z"/>
<path d="M1727 2463 c-8 -10 -31 -58 -49 -108 -33 -90 -33 -90 -93 -122 -62
-33 -89 -61 -100 -105 -5 -20 -2 -29 16 -41 26 -19 46 -11 99 38 19 18 45 36
58 40 14 4 33 28 52 65 17 33 39 64 49 70 51 27 58 61 21 95 -18 16 -20 15
-35 -21 -53 -131 -80 -173 -117 -190 -20 -9 -49 -29 -64 -45 -25 -26 -54 -38
-54 -23 0 11 91 94 104 94 21 0 44 32 72 101 59 147 72 157 121 92 15 -21 36
-47 46 -57 27 -31 21 -61 -19 -87 -30 -21 -74 -83 -74 -106 0 -4 22 16 49 44
48 50 60 56 140 66 27 4 6 22 -22 20 -21 -1 -27 3 -23 14 4 8 -19 49 -57 99
-65 88 -89 101 -120 67z"/>
<path d="M2030 2374 c0 -20 40 -56 124 -110 121 -78 111 -45 -11 38 -41 27
-79 58 -86 68 -14 24 -27 26 -27 4z"/>
<path d="M1826 2334 c-3 -12 -24 -35 -46 -53 -26 -21 -43 -44 -50 -71 -8 -31
-19 -44 -48 -59 -39 -20 -93 -71 -75 -71 6 0 37 15 69 33 49 27 61 40 72 72 7
25 29 55 58 80 40 36 44 43 36 65 -9 24 -9 24 -16 4z"/>
<path d="M895 2270 c-53 -27 -100 -66 -88 -73 5 -3 31 10 58 29 56 39 73 42
108 14 34 -27 51 -27 37 0 -8 16 -58 50 -72 50 -2 0 -21 -9 -43 -20z"/>
<path d="M1291 2215 c-13 -26 -21 -58 -19 -77 3 -29 5 -26 31 39 30 77 31 83
19 83 -5 0 -19 -20 -31 -45z"/>
</g>
</svg>
